# xmcd CD database file
#
# Track frame offsets:
#	150
#	17416
#	36246
#	49561
#	68891
#	88728
#	105861
#	120128
#	139963
#	154798
#	174146
#	188551
#	204271
#	220751
#	240481
#
# Disc length: 3421 seconds
#
# Revision: 2
# Processed by: cddbd v1.5.2PL0 Copyright (c) Steve Scherf et al.
# Submitted via: CDex 1.51
#
DISCID=b10d5b0f
DTITLE=Vários - Romance Sertanejo
DYEAR=2004
DGENRE=Sertanejo
TTITLE0=Gian and Giovani - O Que É Que A Gente Não Faz Por Amor
TTITLE1=Leonardo - Cristal Quebrado
TTITLE2=Bruno and Marrone - Vivendo De Passado
TTITLE3=Gian and Giovani - O Grande Amor Da Minha Vida (Convite De Casamento)
TTITLE4=Leonardo - Deixaria Tudo
TTITLE5=Bruno and Marrone - Paixão Demais
TTITLE6=Gian and Giovani - Amor Demais
TTITLE7=Leonardo - Mentira Que Virou Paixão
TTITLE8=Bruno and Marrone - Telefone Mudo
TTITLE9=Gian and Giovani - Eu Busco Uma Estrela
TTITLE10=Leonardo - Te Amo Demais
TTITLE11=Bruno and Marrone - Ligação Urbana
TTITLE12=Gian and Giovani - 1.000 Corações
TTITLE13=Leonardo - Temporal De Amor (Ao Vivo)
TTITLE14=Bruno and Marrone - Menina
EXTD=YEAR: 2004
EXTT0=
EXTT1=
EXTT2=
EXTT3=
EXTT4=
EXTT5=
EXTT6=
EXTT7=
EXTT8=
EXTT9=
EXTT10=
EXTT11=
EXTT12=
EXTT13=
EXTT14=
PLAYORDER=
